<?xml version="1.0" encoding="UTF-8"?>
<svg id="Layer_1" xmlns="http://www.w3.org/2000/svg" xmlns:svg="http://www.w3.org/2000/svg" xmlns:sodipodi="http://sodipodi.sourceforge.net/DTD/sodipodi-0.dtd" xmlns:rdf="http://www.w3.org/1999/02/22-rdf-syntax-ns#" xmlns:inkscape="http://www.inkscape.org/namespaces/inkscape" xmlns:dc="http://purl.org/dc/elements/1.1/" xmlns:cc="http://creativecommons.org/ns#" version="1.1" viewBox="0 0 100 125">
  <!-- Generator: Adobe Illustrator 30.2.1, SVG Export Plug-In . SVG Version: 2.1.1 Build 1)  -->
  <defs>
    <style>
      .st0 {
        fill: #0059ff;
      }
    </style>
  </defs>
  <path class="st0" d="M14,18c-2.8,0-5,2.2-5,5s2.2,5,5,5h72c2.8,0,5-2.2,5-5s-2.2-5-5-5H14ZM14,45c-2.8,0-5,2.2-5,5s2.2,5,5,5h72c2.8,0,5-2.2,5-5s-2.2-5-5-5H14ZM14,72c-2.8,0-5,2.2-5,5s2.2,5,5,5h72c2.8,0,5-2.2,5-5s-2.2-5-5-5H14Z"/>
</svg>