<?xml version="1.0" encoding="UTF-8"?>
<svg id="Layer_1" xmlns="http://www.w3.org/2000/svg" version="1.1" viewBox="0 0 110 135">
  <!-- Generator: Adobe Illustrator 30.2.1, SVG Export Plug-In . SVG Version: 2.1.1 Build 1)  -->
  <defs>
    <style>
      .st0 {
        fill: #fff;
        fill-rule: evenodd;
      }
    </style>
  </defs>
  <path class="st0" d="M43.5,82h6c.7,0,1.3-.3,1.8-.7s.7-1.1.7-1.8v-39c0-.7-.3-1.3-.7-1.8s-1.1-.7-1.8-.7h-6c-1.4,0-2.5,1.1-2.5,2.5v39c0,.7.3,1.3.7,1.8.5.5,1.1.7,1.8.7h0ZM61.5,82h6c.7,0,1.3-.3,1.8-.7.5-.5.7-1.1.7-1.8v-39c0-.7-.3-1.3-.7-1.8s-1.1-.7-1.8-.7h-6c-1.4,0-2.5,1.1-2.5,2.5v39c0,.7.3,1.3.7,1.8.5.5,1.1.7,1.8.7h0Z"/>
</svg>