<?xml version="1.0" encoding="UTF-8"?>
<svg id="Layer_1" xmlns="http://www.w3.org/2000/svg" version="1.1" viewBox="0 0 110 135">
  <!-- Generator: Adobe Illustrator 30.2.1, SVG Export Plug-In . SVG Version: 2.1.1 Build 1)  -->
  <defs>
    <style>
      .st0 {
        fill: #0059ff;
      }
    </style>
  </defs>
  <path class="st0" d="M69.1,60l30.9-30.9c3.9-3.9,3.9-10.2,0-14.1s-10.2-3.9-14.1,0l-30.9,30.9L24.1,15c-3.9-3.9-10.2-3.9-14.1,0-3.9,3.9-3.9,10.2,0,14.1l30.9,30.9-30.9,30.9c-3.9,3.9-3.9,10.2,0,14.1,2,2,4.5,2.9,7.1,2.9s5.1-1,7.1-2.9l30.9-30.9,30.9,30.9c2,2,4.5,2.9,7.1,2.9s5.1-1,7.1-2.9c3.9-3.9,3.9-10.2,0-14.1l-30.9-30.9h0Z"/>
</svg>